<svg xmlns="http://www.w3.org/2000/svg" width="64.47" height="50.286" viewBox="0 0 64.47 50.286">
  <g id="Group_116" data-name="Group 116" transform="translate(-552.101 -421.017)" opacity="0.7">
    <path id="Path_157" data-name="Path 157" d="M577.8,422.517a4.7,4.7,0,0,0-4.221,2.614L572.635,427a4.724,4.724,0,0,1-4.22,2.614H558.33a4.726,4.726,0,0,0-4.729,4.728v30.735a4.726,4.726,0,0,0,4.729,4.729h52.013a4.726,4.726,0,0,0,4.728-4.729V434.339a4.726,4.726,0,0,0-4.728-4.728H600.258a4.7,4.7,0,0,1-4.22-2.614l-.943-1.866a4.724,4.724,0,0,0-4.22-2.614Z" fill="none" stroke="#6c778c" stroke-miterlimit="10" stroke-width="3"/>
    <path id="Path_158" data-name="Path 158" d="M563.059,424.882a2.369,2.369,0,0,0-2.365,2.364h7.093a2.369,2.369,0,0,0-2.364-2.364Z" fill="none" stroke="#6c778c" stroke-miterlimit="10" stroke-width="1"/>
    <path id="Path_159" data-name="Path 159" d="M584.4,429.511a18.08,18.08,0,1,1-18.081,18.08A18.1,18.1,0,0,1,584.4,429.511Z" transform="translate(-0.067 -0.067)" fill="none" stroke="#6c778c" stroke-miterlimit="10" stroke-width="2"/>
    <path id="Path_160" data-name="Path 160" d="M605.615,434.339a2.364,2.364,0,1,1-2.365,2.364A2.369,2.369,0,0,1,605.615,434.339Z" fill="none" stroke="#6c778c" stroke-miterlimit="10" stroke-width="1"/>
    <path id="Path_161" data-name="Path 161" d="M598.968,446.938a15.218,15.218,0,1,1-15.218-15.217A15.263,15.263,0,0,1,598.968,446.938Z" transform="translate(0.586 0.586)" fill="none" stroke="#6c778c" stroke-miterlimit="10" stroke-width="1"/>
    <path id="Path_162" data-name="Path 162" d="M584.189,458.65a3.767,3.767,0,0,1-3.8-3.8h1.522a2.283,2.283,0,0,0,4.565,0h1.521A3.767,3.767,0,0,1,584.189,458.65Z" transform="translate(0.146 -0.271)" fill="#6c778c"/>
    <path id="Path_163" data-name="Path 163" d="M578.688,442.783c-1.68,0-3.044,1.7-3.044,3.8s1.364,3.8,3.044,3.8,3.044-1.7,3.044-3.8S580.369,442.783,578.688,442.783Z" transform="translate(0.322 0.176)" fill="#6c778c"/>
    <path id="Path_164" data-name="Path 164" d="M577.956,444.363a1.522,1.522,0,1,0,1.521,1.522A1.522,1.522,0,0,0,577.956,444.363Zm2.282,3.044a.761.761,0,1,0,.762.761A.761.761,0,0,0,580.239,447.407Z" transform="translate(0.293 0.117)" fill="#fff"/>
    <path id="Path_165" data-name="Path 165" d="M589.751,442.783c-1.681,0-3.044,1.7-3.044,3.8s1.363,3.8,3.044,3.8,3.043-1.7,3.043-3.8S591.431,442.783,589.751,442.783Z" transform="translate(-0.088 0.176)" fill="#6c778c"/>
    <path id="Path_166" data-name="Path 166" d="M589.018,444.363a1.522,1.522,0,1,0,1.522,1.522A1.522,1.522,0,0,0,589.018,444.363Zm2.283,3.044a.761.761,0,1,0,.761.761A.76.76,0,0,0,591.3,447.407Z" transform="translate(-0.117 0.117)" fill="#fff"/>
  </g>
</svg>
