<svg width="24" height="23" viewBox="0 0 24 23" fill="none" xmlns="http://www.w3.org/2000/svg">
<path d="M8.6355 0.606441C8.72002 0.657053 8.79374 0.72382 8.85245 0.802929C8.91116 0.882037 8.95371 0.971938 8.97767 1.06749C9.00163 1.16305 9.00652 1.26239 8.99208 1.35984C8.97764 1.45729 8.94414 1.55094 8.8935 1.63544L5.0745 7.99994H18.9255L15.105 1.63544C15.0028 1.46477 14.9725 1.26048 15.0209 1.06751C15.0693 0.874533 15.1923 0.708682 15.363 0.606441C15.5337 0.5042 15.738 0.473944 15.9309 0.522328C16.1239 0.570713 16.2898 0.693774 16.392 0.864441L20.6745 7.99994H23.25C23.4489 7.99994 23.6397 8.07896 23.7803 8.21961C23.921 8.36026 24 8.55103 24 8.74994V10.2499C24 10.4489 23.921 10.6396 23.7803 10.7803C23.6397 10.9209 23.4489 10.9999 23.25 10.9999H0.75C0.551088 10.9999 0.360322 10.9209 0.21967 10.7803C0.0790176 10.6396 0 10.4489 0 10.2499V8.74994C0 8.55103 0.0790176 8.36026 0.21967 8.21961C0.360322 8.07896 0.551088 7.99994 0.75 7.99994H3.3255L7.605 0.864441C7.65561 0.779922 7.72238 0.706202 7.80149 0.647492C7.8806 0.588782 7.9705 0.546233 8.06605 0.522274C8.16161 0.498315 8.26095 0.493417 8.3584 0.507858C8.45585 0.5223 8.5495 0.555799 8.634 0.606441H8.6355ZM5.091 21.4999L2.871 12.4999H1.416L3.7035 22.1389C3.76274 22.3843 3.90279 22.6027 4.10113 22.7588C4.29946 22.915 4.54456 22.9999 4.797 22.9999H19.206C19.4587 23.0003 19.7041 22.9155 19.9028 22.7593C20.1014 22.6031 20.2417 22.3846 20.301 22.1389L22.584 12.4999H21.126L18.9075 21.4999H5.0925H5.091Z" fill="#FED931"/>
</svg>
